<svg width="132" height="78" viewBox="0 0 132 78" fill="none" xmlns="http://www.w3.org/2000/svg">
<path d="M132 0H0V78H132V0Z" fill="white"/>
<path d="M65.9282 14.5608C75.9582 18.6413 74.647 23.5037 74.647 23.5037C74.647 25.7086 73.0609 27.4966 71.0963 27.4966H60.7659C58.8115 27.4966 57.2196 25.7086 57.2196 23.5037C57.2196 23.5037 55.8981 18.6413 65.9282 14.5608Z" fill="#FF8C00" stroke="#333333" stroke-miterlimit="10"/>
<path d="M65.9243 14.2106V10" stroke="#333333" stroke-miterlimit="10" stroke-linecap="round" stroke-linejoin="round"/>
<path d="M55.7021 33.965H76.898V27.4971H55.7021V33.965Z" fill="#FFDE99" stroke="#333333" stroke-miterlimit="10"/>
<path d="M46.9294 69.8975H53.5075V44.0259H46.9294V69.8975Z" fill="#FFDE99" stroke="#333333" stroke-miterlimit="10"/>
<path d="M50.5829 36.8397C56.4301 39.1049 55.6663 41.8049 55.6663 41.8049C55.69 42.37 55.4848 42.9212 55.0957 43.3377C54.7065 43.7542 54.1652 44.0018 53.5905 44.0262H47.5672C46.994 43.9998 46.4549 43.7512 46.0675 43.335C45.6802 42.9187 45.4762 42.3686 45.5002 41.8049C45.5002 41.8049 44.7299 39.1049 50.5829 36.8397Z" stroke="#333333" stroke-miterlimit="10"/>
<path d="M50.6863 36.7693V34.1418" stroke="#333333" stroke-miterlimit="10" stroke-linecap="round" stroke-linejoin="round"/>
<path d="M78.3564 69.8975H84.9345V44.0259H78.3564V69.8975Z" fill="#FFDE99" stroke="#333333" stroke-miterlimit="10"/>
<path d="M82.0151 36.8397C87.8622 39.1049 87.0985 41.8049 87.0985 41.8049C87.1228 42.3697 86.9182 42.9208 86.5296 43.3373C86.1409 43.7539 85.6 44.0016 85.0256 44.0263H79.0016C78.9145 44.0268 78.8275 44.0205 78.7414 44.0076C78.2207 43.9161 77.751 43.6429 77.4185 43.2383C77.0861 42.8337 76.9133 42.3247 76.9317 41.8049C76.9317 41.8049 76.5042 40.2957 78.7363 38.5825C79.7396 37.8516 80.8436 37.2648 82.0151 36.8397V36.8397Z" fill="#FF8C00" stroke="#333333" stroke-miterlimit="10"/>
<path d="M81.9468 36.7693V34.1418" stroke="#333333" stroke-miterlimit="10" stroke-linecap="round" stroke-linejoin="round"/>
<path d="M77.8304 47.8679H53.4661" stroke="#333333" stroke-miterlimit="10"/>
<path d="M77.8304 47.8679H53.4661" stroke="#333333" stroke-miterlimit="10"/>
<path d="M53.5083 37.5468C53.5083 34.4904 56.0664 33.9658 59.2217 33.9658H72.6416C75.8005 33.9658 78.3586 34.4904 78.3586 37.5468V38.2777H53.5083V37.5468Z" fill="#FFDE99" stroke="#333333" stroke-miterlimit="10"/>
<path d="M50.5829 36.8397C51.7485 37.2631 52.8476 37.8459 53.8478 38.571C56.0996 40.2857 55.6692 41.8049 55.6692 41.8049C55.6872 42.3246 55.5141 42.8333 55.1818 43.2379C54.8494 43.6424 54.38 43.9156 53.8595 44.0076C53.7716 44.0205 53.6829 44.0268 53.5942 44.0263H47.5672C46.994 43.9998 46.4549 43.7513 46.0675 43.335C45.6802 42.9187 45.4762 42.3686 45.5002 41.8049C45.5002 41.8049 44.7299 39.1049 50.5829 36.8397Z" fill="#FF8C00" stroke="#333333" stroke-miterlimit="10"/>
<path d="M53.5083 44.0199C54.013 43.9364 54.4701 43.6767 54.7955 43.2884C55.121 42.9001 55.2931 42.4094 55.28 41.9063C55.28 41.9063 55.7112 40.4475 53.5083 38.8018V38.2793H78.3586V38.8147C76.1777 40.4561 76.5957 41.9049 76.5957 41.9049C76.5809 42.4072 76.7511 42.8978 77.0751 43.2864C77.399 43.6751 77.8549 43.9355 78.3586 44.0199V47.6218H53.5083V44.0199Z" fill="#FFDE99" stroke="#333333" stroke-miterlimit="10"/>
<path d="M53.5083 69.8984H78.3586V47.6201H53.5083V69.8984Z" stroke="#333333" stroke-miterlimit="10"/>
<path d="M62.279 47.6201H53.5083V69.8984H62.279V47.6201Z" fill="#FFDE99"/>
<path d="M61.9124 47.9812H53.8726V69.541H61.9124V47.9812Z" stroke="#333333" stroke-miterlimit="10"/>
<path d="M70.3154 47.6201H61.5447V69.8984H70.3154V47.6201Z" fill="#FFDE99"/>
<path d="M69.9532 47.9812H61.9133V69.541H69.9532V47.9812Z" stroke="#333333" stroke-miterlimit="10"/>
<path d="M78.3569 47.6201H69.5862V69.8984H78.3569V47.6201Z" fill="#FFDE99"/>
<path d="M77.9951 47.9812H69.9553V69.541H77.9951V47.9812Z" stroke="#333333" stroke-miterlimit="10"/>
<path d="M53.5083 69.8971H78.3586V65.5852H53.5083V69.8971Z" fill="#FF8C00" stroke="#333333" stroke-miterlimit="10"/>
<path d="M60.8608 41.6597V45.0444" stroke="#333333" stroke-miterlimit="10"/>
<path d="M65.8584 41.6597V45.0444" stroke="#333333" stroke-miterlimit="10"/>
<path d="M71.5898 41.6597V45.0444" stroke="#333333" stroke-miterlimit="10"/>
<path d="M104.316 53.3669H84.9353" stroke="#333333" stroke-miterlimit="10"/>
<path d="M84.9353 53.3693H103.938V47.6201H84.9353V53.3693Z" stroke="#333333" stroke-miterlimit="10"/>
<path d="M84.9353 69.896H103.939V53.3669H84.9353V69.896Z" fill="#FFDE99" stroke="#333333" stroke-miterlimit="10"/>
<path d="M103.936 69.8975H110.514V44.0259H103.936V69.8975Z" fill="#FFDE99" stroke="#333333" stroke-miterlimit="10"/>
<path d="M107.594 36.8397C101.747 39.1049 102.511 41.8049 102.511 41.8049C102.499 42.0846 102.543 42.3639 102.64 42.6269C102.738 42.8899 102.887 43.1314 103.079 43.3377C103.272 43.544 103.504 43.711 103.762 43.8291C104.02 43.9472 104.299 44.0142 104.584 44.0262H110.608C111.182 44.0005 111.721 43.7523 112.109 43.3359C112.497 42.9196 112.702 42.3691 112.678 41.8049C112.678 41.8049 113.442 39.1049 107.594 36.8397Z" fill="#FF8C00" stroke="#333333" stroke-miterlimit="10"/>
<path d="M107.36 36.7693V34.1418" stroke="#333333" stroke-miterlimit="10" stroke-linecap="round" stroke-linejoin="round"/>
<path d="M97.408 57.6804H99.4933C99.7332 57.8576 99.9288 58.0863 100.065 58.3491C100.201 58.6119 100.275 58.9018 100.28 59.1968V61.2737H96.6252V59.1968C96.6301 58.9022 96.7031 58.6125 96.8387 58.3498C96.9743 58.0871 97.169 57.8582 97.408 57.6804V57.6804Z" fill="#FF8C00" stroke="#333333" stroke-miterlimit="10"/>
<path d="M96.6252 69.8971H100.28V65.5852H96.6252V69.8971Z" fill="#FF8C00" stroke="#333333" stroke-miterlimit="10"/>
<path d="M89.3692 57.6804H91.4567C91.6966 57.8574 91.8921 58.0861 92.0281 58.349C92.164 58.6119 92.2368 58.9019 92.2409 59.1968V61.2737H88.5864V59.1968C88.5904 58.902 88.6631 58.6121 88.7988 58.3492C88.9345 58.0864 89.1296 57.8576 89.3692 57.6804V57.6804Z" fill="#FF8C00" stroke="#333333" stroke-miterlimit="10"/>
<path d="M88.5864 69.8971H92.2409V65.5852H88.5864V69.8971Z" fill="#FF8C00" stroke="#333333" stroke-miterlimit="10"/>
<path d="M84.9353 53.3693H91.5133V47.6201H84.9353V53.3693Z" fill="#FF8C00" stroke="#333333" stroke-miterlimit="10"/>
<path d="M91.5142 53.3693H97.3613V47.6201H91.5142V53.3693Z" fill="#FF8C00" stroke="#333333" stroke-miterlimit="10"/>
<path d="M97.3594 53.3693H103.937V47.6201H97.3594V53.3693Z" fill="#FF8C00" stroke="#333333" stroke-miterlimit="10"/>
<path d="M46.4727 69.9402H84.9727V67.6107H46.4727V69.9402Z" fill="#FF8C00" stroke="#333333" stroke-miterlimit="10"/>
<path d="M27.9265 53.3669H47.3069" stroke="#333333" stroke-miterlimit="10"/>
<path d="M27.9265 69.896H46.9297V53.3669H27.9265V69.896Z" fill="#FFDE99" stroke="#333333" stroke-miterlimit="10"/>
<path d="M27.9265 53.3693H46.9297V47.6201H27.9265V53.3693Z" stroke="#333333" stroke-miterlimit="10"/>
<path d="M21.3477 69.8975H27.9257V44.0259H21.3477V69.8975Z" fill="#FFDE99" stroke="#333333" stroke-miterlimit="10"/>
<path d="M25.0011 36.8397C30.8483 39.1049 30.083 41.8049 30.083 41.8049C30.108 42.3694 29.9039 42.9206 29.5156 43.3372C29.1273 43.7538 28.5866 44.0016 28.0124 44.0262H21.9869C21.4135 43.9999 20.874 43.7515 20.4863 43.3353C20.0986 42.9191 19.8942 42.3688 19.9178 41.8049C19.9178 41.8049 19.154 39.1049 25.0011 36.8397Z" fill="#FF8C00" stroke="#333333" stroke-miterlimit="10"/>
<path d="M24.5078 36.7693V34.1418" stroke="#333333" stroke-miterlimit="10" stroke-linecap="round" stroke-linejoin="round"/>
<path d="M34.4515 57.6804H32.3619C32.1219 57.8574 31.9264 58.0861 31.7905 58.349C31.6545 58.6119 31.5817 58.9019 31.5776 59.1968V61.2737H35.2321V59.1968C35.2282 58.9023 35.1558 58.6125 35.0205 58.3497C34.8852 58.0868 34.6906 57.8579 34.4515 57.6804V57.6804Z" fill="#FF8C00" stroke="#333333" stroke-miterlimit="10"/>
<path d="M31.5776 69.8971H35.2321V65.5852H31.5776V69.8971Z" fill="#FF8C00" stroke="#333333" stroke-miterlimit="10"/>
<path d="M42.4908 57.6804H40.4034C40.1634 57.8574 39.968 58.0861 39.832 58.349C39.696 58.6119 39.6232 58.9019 39.6191 59.1968V61.2737H43.2736V59.1968C43.2696 58.902 43.197 58.6121 43.0613 58.3492C42.9256 58.0864 42.7304 57.8576 42.4908 57.6804V57.6804Z" fill="#FF8C00" stroke="#333333" stroke-miterlimit="10"/>
<path d="M39.6191 69.8971H43.2736V65.5852H39.6191V69.8971Z" fill="#FF8C00" stroke="#333333" stroke-miterlimit="10"/>
<path d="M27.9265 53.3693H34.5046V47.6201H27.9265V53.3693Z" fill="#FF8C00" stroke="#333333" stroke-miterlimit="10"/>
<path d="M34.5054 53.3693H40.3525V47.6201H34.5054V53.3693Z" fill="#FF8C00" stroke="#333333" stroke-miterlimit="10"/>
<path d="M40.3506 53.3693H46.9286V47.6201H40.3506V53.3693Z" fill="#FF8C00" stroke="#333333" stroke-miterlimit="10"/>
<path d="M16 69.9768H116.595" stroke="#333333" stroke-linecap="round" stroke-linejoin="round"/>
</svg>
